<?xml version="1.0" encoding="utf-8"?>
<!-- Generator: Adobe Illustrator 16.0.0, SVG Export Plug-In . SVG Version: 6.00 Build 0)  -->
<!DOCTYPE svg PUBLIC "-//W3C//DTD SVG 1.1//EN" "http://www.w3.org/Graphics/SVG/1.1/DTD/svg11.dtd">
<svg version="1.1" id="Layer_1" xmlns="http://www.w3.org/2000/svg" xmlns:xlink="http://www.w3.org/1999/xlink" x="0px" y="0px"
	 width="100px" height="30px" viewBox="0 0 100 30" enable-background="new 0 0 100 30" xml:space="preserve">
<g id="Layer_1_1_">
	<rect x="-1.123" y="-1" fill="#D3009C" width="102" height="32"/>
	<polygon fill="#DC008E" points="-1.125,31.749 -1.207,11.909 -4,-1.539 34.555,-0.999 68.298,32.742 	"/>
</g>
<g>
	<path fill-rule="evenodd" clip-rule="evenodd" fill="#D3009C" d="M15.732,8.32c0.101,0.348,0.189,0.672,0.289,0.993
		c0.238,0.772,0.842,1.228,1.615,1.226c1.019-0.002,1.806-0.979,1.573-1.969c-0.089-0.378-0.213-0.748-0.327-1.142
		c1.74-0.504,3.452-0.999,5.199-1.505c0.105,0.361,0.197,0.721,0.313,1.071c0.393,1.194,1.896,1.528,2.751,0.608
		c0.446-0.482,0.528-1.056,0.352-1.676c-0.085-0.299-0.173-0.598-0.271-0.936c0.097-0.029,0.177-0.052,0.256-0.074
		c1.102-0.319,2.202-0.639,3.303-0.957c0.447-0.129,0.649-0.02,0.778,0.426c1.625,5.611,3.251,11.225,4.876,16.836
		c0.021,0.073,0.036,0.148,0.057,0.234c-6.605,1.912-13.197,3.821-19.807,5.736c-0.031-0.105-0.057-0.196-0.083-0.288
		c-1.613-5.569-3.227-11.14-4.84-16.711c-0.154-0.534-0.061-0.707,0.467-0.86c1.067-0.309,2.135-0.617,3.202-0.927
		C15.522,8.381,15.612,8.355,15.732,8.32z M13.211,13.46c6.309-1.827,12.6-3.649,18.883-5.47c-0.352-1.214-0.698-2.409-1.048-3.617
		c-0.888,0.257-1.754,0.508-2.621,0.759C27.8,5.313,27.8,5.313,27.967,5.928c0.007,0.025,0.015,0.051,0.021,0.076
		c0.258,1.096-0.374,2.189-1.451,2.512c-1.069,0.32-2.204-0.262-2.579-1.324c-0.08-0.225-0.155-0.451-0.234-0.68
		c-1.433,0.415-2.837,0.822-4.262,1.234c0.064,0.223,0.131,0.428,0.183,0.638c0.341,1.353-0.686,2.643-2.081,2.619
		c-0.948-0.017-1.705-0.615-2.013-1.594c-0.051-0.162-0.095-0.326-0.143-0.491c-1.101,0.318-2.165,0.627-3.241,0.938
		C12.516,11.06,12.86,12.25,13.211,13.46z M30.186,11.728c0.222,0.766,0.438,1.512,0.656,2.266c0.933-0.271,1.85-0.535,2.764-0.801
		c-0.222-0.767-0.438-1.513-0.657-2.265C32.027,11.194,31.121,11.457,30.186,11.728z M14.063,16.397
		c0.222,0.767,0.438,1.513,0.658,2.271c0.918-0.266,1.823-0.527,2.742-0.793c-0.221-0.765-0.438-1.516-0.658-2.273
		C15.884,15.869,14.985,16.13,14.063,16.397z M17.295,15.462c0.223,0.767,0.438,1.513,0.658,2.271
		c0.923-0.268,1.827-0.529,2.741-0.794c-0.222-0.765-0.44-1.518-0.659-2.272C19.118,14.933,18.219,15.194,17.295,15.462z
		 M23.271,13.741c-0.928,0.269-1.839,0.533-2.746,0.796c0.221,0.765,0.438,1.509,0.654,2.259c0.923-0.268,1.827-0.529,2.746-0.795
		C23.707,15.245,23.492,14.505,23.271,13.741z M27.14,15.073c-0.225-0.777-0.441-1.523-0.655-2.263
		c-0.924,0.269-1.829,0.53-2.727,0.79c0.222,0.765,0.438,1.51,0.655,2.262C25.334,15.596,26.23,15.337,27.14,15.073z M30.36,14.14
		c-0.221-0.764-0.439-1.515-0.656-2.265c-0.923,0.268-1.827,0.529-2.735,0.792c0.22,0.761,0.437,1.506,0.656,2.266
		C28.543,14.666,29.446,14.405,30.36,14.14z M32.397,19.366c0.931-0.27,1.848-0.535,2.761-0.8c-0.221-0.762-0.436-1.507-0.65-2.245
		c-0.931,0.27-1.842,0.534-2.762,0.8C31.967,17.88,32.181,18.618,32.397,19.366z M18.38,20.993
		c-0.934,0.271-1.843,0.533-2.756,0.798c0.22,0.761,0.434,1.5,0.65,2.245c0.925-0.268,1.836-0.532,2.756-0.798
		C18.813,22.485,18.6,21.753,18.38,20.993z M22.249,22.309c-0.221-0.763-0.437-1.508-0.651-2.249
		c-0.923,0.267-1.829,0.529-2.745,0.794c0.219,0.759,0.433,1.497,0.651,2.251C20.422,22.838,21.328,22.576,22.249,22.309z
		 M22.729,22.163c0.929-0.27,1.839-0.533,2.746-0.795c-0.221-0.762-0.434-1.5-0.651-2.249c-0.924,0.268-1.829,0.53-2.746,0.795
		C22.296,20.668,22.51,21.407,22.729,22.163z M28.051,18.194c-0.922,0.268-1.831,0.531-2.737,0.793
		c0.221,0.763,0.435,1.501,0.65,2.244c0.921-0.268,1.824-0.529,2.737-0.793C28.482,19.683,28.269,18.944,28.051,18.194z
		 M31.915,19.515c-0.224-0.771-0.439-1.515-0.653-2.253c-0.924,0.268-1.827,0.529-2.727,0.789c0.222,0.766,0.437,1.509,0.653,2.254
		C30.107,20.039,31.004,19.779,31.915,19.515z M31.605,16.628c0.931-0.271,1.847-0.535,2.76-0.799
		c-0.212-0.732-0.418-1.444-0.622-2.146c-0.931,0.27-1.842,0.534-2.76,0.8C31.194,15.206,31.397,15.91,31.605,16.628z
		 M14.858,19.147c0.212,0.729,0.416,1.436,0.623,2.15c0.923-0.268,1.833-0.531,2.75-0.796c-0.21-0.727-0.415-1.432-0.623-2.15
		C16.688,18.618,15.782,18.88,14.858,19.147z M21.46,19.576c-0.212-0.731-0.418-1.443-0.625-2.158
		c-0.921,0.267-1.827,0.528-2.741,0.793c0.21,0.726,0.416,1.437,0.625,2.159C19.637,20.104,20.536,19.844,21.46,19.576z
		 M24.685,18.639c-0.214-0.738-0.417-1.442-0.625-2.157c-0.923,0.268-1.828,0.529-2.744,0.794c0.21,0.726,0.417,1.438,0.625,2.158
		C22.86,19.167,23.765,18.905,24.685,18.639z M27.905,17.705c-0.211-0.728-0.417-1.439-0.623-2.151
		c-0.922,0.268-1.827,0.529-2.727,0.79c0.211,0.729,0.417,1.44,0.623,2.151C26.099,18.228,26.996,17.968,27.905,17.705z
		 M28.384,17.563c0.93-0.269,1.833-0.53,2.738-0.793c-0.211-0.729-0.417-1.44-0.623-2.149c-0.923,0.268-1.826,0.529-2.738,0.793
		C27.97,16.136,28.174,16.84,28.384,17.563z M32.544,19.843c0.207,0.715,0.405,1.401,0.604,2.089
		c0.934-0.271,1.844-0.534,2.754-0.798c-0.205-0.708-0.404-1.395-0.605-2.088C34.374,19.313,33.467,19.576,32.544,19.843z
		 M19.768,25.82c-0.206-0.712-0.405-1.397-0.605-2.091c-0.928,0.269-1.838,0.532-2.742,0.793c0.205,0.709,0.404,1.396,0.605,2.091
		C17.942,26.349,18.84,26.089,19.768,25.82z M20.248,25.667c0.929-0.269,1.838-0.532,2.745-0.795
		c-0.205-0.707-0.404-1.393-0.603-2.082c-0.922,0.268-1.826,0.529-2.744,0.796C19.846,24.281,20.043,24.961,20.248,25.667z
		 M23.469,24.73c0.933-0.27,1.843-0.533,2.752-0.797c-0.204-0.705-0.401-1.385-0.601-2.076c-0.926,0.268-1.836,0.531-2.753,0.797
		C23.07,23.354,23.267,24.034,23.469,24.73z M29.443,23.008c-0.203-0.703-0.402-1.389-0.604-2.086
		c-0.918,0.266-1.821,0.527-2.735,0.793c0.203,0.701,0.401,1.387,0.604,2.085C27.626,23.534,28.529,23.272,29.443,23.008z
		 M32.064,19.99c-0.931,0.271-1.835,0.532-2.74,0.794c0.205,0.706,0.404,1.394,0.603,2.082c0.922-0.268,1.826-0.529,2.74-0.794
		C32.464,21.371,32.267,20.69,32.064,19.99z M32.815,10.461c-0.196-0.677-0.386-1.33-0.575-1.985c-0.928,0.269-1.841,0.533-2.76,0.8
		c0.194,0.67,0.383,1.323,0.575,1.984C30.98,10.992,31.887,10.729,32.815,10.461z M16.103,13.151
		c-0.929,0.27-1.838,0.532-2.746,0.795c0.195,0.672,0.384,1.324,0.573,1.979c0.923-0.267,1.828-0.529,2.746-0.795
		C16.485,14.47,16.297,13.823,16.103,13.151z M19.333,12.213c-0.933,0.27-1.837,0.533-2.748,0.796
		c0.194,0.668,0.383,1.322,0.572,1.975c0.929-0.27,1.839-0.533,2.748-0.797C19.711,13.521,19.524,12.873,19.333,12.213z
		 M22.559,11.277c-0.936,0.271-1.84,0.533-2.75,0.797c0.193,0.668,0.383,1.321,0.573,1.977c0.925-0.268,1.835-0.532,2.75-0.797
		C22.938,12.588,22.751,11.941,22.559,11.277z M23.609,13.12c0.924-0.269,1.828-0.53,2.739-0.794
		c-0.193-0.667-0.382-1.32-0.573-1.979c-0.92,0.267-1.824,0.528-2.74,0.793C23.228,11.803,23.415,12.449,23.609,13.12z
		 M29.002,9.414c-0.932,0.27-1.836,0.531-2.741,0.794c0.194,0.671,0.384,1.323,0.573,1.977c0.923-0.268,1.828-0.529,2.741-0.794
		C29.382,10.727,29.194,10.08,29.002,9.414z"/>
	<path fill-rule="evenodd" clip-rule="evenodd" fill="#D3009C" d="M18.617,7.377c0.118,0.408,0.256,0.813,0.35,1.226
		c0.158,0.696-0.208,1.358-0.864,1.616c-0.627,0.246-1.348-0.013-1.709-0.615c-0.035-0.059-0.068-0.121-0.087-0.187
		c-0.248-0.85-0.515-1.694-0.731-2.55c-0.169-0.672,0.275-1.36,0.958-1.578c0.654-0.207,1.425,0.115,1.671,0.745
		c0.169,0.435,0.268,0.896,0.398,1.347C18.608,7.379,18.612,7.378,18.617,7.377z M18.174,7.518
		c-0.114-0.391-0.217-0.785-0.343-1.173c-0.159-0.493-0.646-0.749-1.133-0.615c-0.476,0.132-0.781,0.592-0.655,1.084
		c0.204,0.798,0.43,1.591,0.684,2.373c0.172,0.532,0.689,0.771,1.179,0.605c0.49-0.167,0.729-0.658,0.579-1.199
		C18.385,8.233,18.278,7.876,18.174,7.518z"/>
	<path fill-rule="evenodd" clip-rule="evenodd" fill="#D3009C" d="M26.962,4.988c0.106,0.367,0.215,0.732,0.318,1.101
		c0.208,0.747-0.172,1.482-0.894,1.733c-0.692,0.241-1.469-0.111-1.75-0.819c-0.134-0.337-0.22-0.694-0.322-1.044
		c-0.14-0.482-0.294-0.964-0.405-1.453c-0.132-0.586,0.121-1.154,0.608-1.466c0.494-0.316,1.125-0.323,1.581,0.055
		c0.221,0.185,0.398,0.456,0.512,0.724C26.769,4.191,26.849,4.597,26.962,4.988z M26.51,5.113c-0.111-0.384-0.219-0.768-0.333-1.15
		c-0.149-0.495-0.62-0.768-1.114-0.652c-0.487,0.114-0.821,0.587-0.695,1.084c0.206,0.815,0.441,1.625,0.702,2.424
		c0.16,0.489,0.693,0.719,1.163,0.563c0.485-0.16,0.74-0.656,0.596-1.168C26.725,5.845,26.616,5.479,26.51,5.113z"/>
</g>
<g>
	<path fill-rule="evenodd" clip-rule="evenodd" fill="#DC008E" d="M64.993,7.778c-0.036,0.234-0.073,0.452-0.103,0.671
		c-0.07,0.525,0.163,0.964,0.624,1.176c0.606,0.279,1.345-0.085,1.479-0.738c0.052-0.25,0.08-0.505,0.121-0.771
		c1.175,0.18,2.331,0.357,3.511,0.538c-0.037,0.244-0.081,0.483-0.109,0.724c-0.096,0.82,0.708,1.435,1.472,1.122
		c0.398-0.164,0.605-0.483,0.672-0.9c0.031-0.202,0.061-0.404,0.096-0.633c0.066,0.01,0.119,0.018,0.173,0.026
		c0.745,0.114,1.487,0.228,2.231,0.342c0.302,0.047,0.392,0.167,0.346,0.468c-0.58,3.791-1.161,7.582-1.741,11.372
		c-0.008,0.05-0.021,0.099-0.03,0.156c-4.463-0.685-8.914-1.366-13.38-2.049c0.011-0.072,0.021-0.133,0.03-0.195
		c0.576-3.762,1.151-7.524,1.728-11.287c0.056-0.361,0.159-0.438,0.516-0.385c0.722,0.111,1.442,0.223,2.163,0.332
		C64.852,7.757,64.912,7.767,64.993,7.778z M62.074,10.144c4.261,0.652,8.51,1.303,12.754,1.952c0.127-0.819,0.25-1.627,0.375-2.443
		c-0.6-0.092-1.186-0.182-1.771-0.271c-0.423-0.065-0.423-0.065-0.493,0.347c-0.002,0.018-0.004,0.035-0.008,0.052
		c-0.148,0.724-0.826,1.201-1.558,1.096c-0.725-0.104-1.24-0.765-1.171-1.501c0.014-0.155,0.032-0.312,0.049-0.469
		c-0.969-0.148-1.917-0.293-2.879-0.44c-0.023,0.149-0.041,0.29-0.067,0.43c-0.17,0.899-1.138,1.385-1.962,0.986
		c-0.561-0.272-0.846-0.838-0.759-1.506c0.015-0.109,0.034-0.22,0.05-0.332c-0.743-0.113-1.461-0.224-2.188-0.334
		C62.322,8.522,62.199,9.326,62.074,10.144z M72.661,13.795c-0.079,0.518-0.155,1.021-0.233,1.531
		c0.629,0.096,1.249,0.191,1.867,0.285c0.078-0.518,0.156-1.021,0.232-1.529C73.905,13.985,73.293,13.892,72.661,13.795z
		 M61.771,12.128c-0.079,0.518-0.156,1.021-0.235,1.534c0.621,0.096,1.231,0.188,1.853,0.284c0.079-0.516,0.157-1.022,0.235-1.535
		C63.001,12.315,62.394,12.224,61.771,12.128z M63.953,12.463c-0.078,0.518-0.155,1.022-0.234,1.534
		c0.624,0.096,1.234,0.189,1.852,0.283c0.079-0.517,0.156-1.024,0.234-1.535C65.186,12.65,64.578,12.559,63.953,12.463z
		 M67.988,13.087c-0.627-0.096-1.243-0.19-1.855-0.284c-0.08,0.517-0.156,1.02-0.233,1.526c0.623,0.095,1.233,0.188,1.854,0.284
		C67.832,14.103,67.908,13.603,67.988,13.087z M69.924,14.947c0.081-0.524,0.158-1.029,0.234-1.527
		c-0.625-0.096-1.235-0.189-1.842-0.282c-0.078,0.517-0.156,1.02-0.233,1.528C68.705,14.761,69.31,14.854,69.924,14.947z
		 M72.1,15.279c0.079-0.515,0.156-1.022,0.234-1.529c-0.624-0.095-1.234-0.188-1.848-0.283c-0.078,0.515-0.155,1.019-0.234,1.531
		C70.872,15.092,71.482,15.187,72.1,15.279z M71.871,18.955c0.629,0.097,1.248,0.191,1.865,0.285
		c0.078-0.515,0.156-1.018,0.231-1.517c-0.628-0.096-1.243-0.189-1.864-0.285C72.024,17.951,71.948,18.449,71.871,18.955z
		 M63.074,16.056c-0.631-0.096-1.246-0.19-1.862-0.285c-0.079,0.515-0.155,1.014-0.232,1.517c0.625,0.097,1.241,0.19,1.862,0.285
		C62.92,17.064,62.995,16.569,63.074,16.056z M65.015,17.907c0.079-0.516,0.155-1.019,0.233-1.52
		c-0.625-0.096-1.236-0.189-1.855-0.284c-0.078,0.512-0.154,1.011-0.232,1.521C63.781,17.718,64.393,17.813,65.015,17.907z
		 M65.341,17.953c0.628,0.096,1.242,0.19,1.854,0.284c0.078-0.515,0.155-1.014,0.232-1.52c-0.623-0.095-1.234-0.188-1.854-0.284
		C65.496,16.943,65.419,17.442,65.341,17.953z M69.605,17.058c-0.623-0.096-1.236-0.188-1.849-0.283
		c-0.079,0.516-0.155,1.014-0.231,1.516c0.621,0.096,1.231,0.188,1.848,0.283C69.451,18.063,69.528,17.564,69.605,17.058z
		 M71.543,18.91c0.079-0.521,0.156-1.023,0.232-1.522c-0.625-0.096-1.234-0.188-1.842-0.282c-0.078,0.518-0.156,1.02-0.232,1.522
		C70.321,18.724,70.928,18.816,71.543,18.91z M72.154,17.105c0.629,0.096,1.248,0.19,1.865,0.286
		c0.074-0.495,0.148-0.976,0.221-1.449c-0.628-0.097-1.244-0.19-1.864-0.286C72.302,16.146,72.229,16.621,72.154,17.105z
		 M61.485,13.985c-0.075,0.493-0.148,0.97-0.222,1.453c0.623,0.095,1.238,0.188,1.856,0.284c0.075-0.491,0.147-0.967,0.223-1.452
		C62.721,14.175,62.109,14.081,61.485,13.985z M65.299,16.063c0.076-0.494,0.15-0.975,0.224-1.458
		c-0.622-0.096-1.233-0.189-1.852-0.284c-0.075,0.49-0.149,0.971-0.224,1.459C64.068,15.873,64.675,15.967,65.299,16.063z
		 M67.479,16.394c0.076-0.498,0.148-0.974,0.223-1.457c-0.624-0.096-1.234-0.189-1.854-0.284c-0.074,0.489-0.148,0.971-0.224,1.457
		C66.246,16.205,66.857,16.298,67.479,16.394z M69.653,16.726c0.075-0.491,0.149-0.972,0.223-1.453
		c-0.623-0.095-1.234-0.188-1.843-0.282c-0.075,0.493-0.148,0.974-0.223,1.453C68.434,16.539,69.039,16.632,69.653,16.726z
		 M69.979,16.773c0.627,0.097,1.237,0.189,1.849,0.283c0.075-0.493,0.149-0.973,0.223-1.452c-0.624-0.096-1.233-0.188-1.85-0.283
		C70.125,15.81,70.053,16.285,69.979,16.773z M71.826,19.279c-0.074,0.482-0.145,0.946-0.216,1.411
		c0.631,0.096,1.245,0.19,1.86,0.284c0.073-0.478,0.145-0.942,0.217-1.41C73.063,19.469,72.45,19.375,71.826,19.279z M62.568,19.314
		c0.074-0.481,0.145-0.944,0.217-1.412c-0.627-0.097-1.242-0.19-1.852-0.285c-0.074,0.479-0.145,0.943-0.217,1.412
		C61.335,19.125,61.941,19.218,62.568,19.314z M62.896,19.355c0.627,0.096,1.241,0.19,1.854,0.283
		c0.073-0.478,0.145-0.94,0.216-1.406c-0.623-0.095-1.233-0.188-1.854-0.283C63.039,18.419,62.97,18.878,62.896,19.355z
		 M65.073,19.686c0.63,0.097,1.245,0.191,1.858,0.285c0.074-0.476,0.145-0.935,0.215-1.402c-0.625-0.096-1.239-0.19-1.859-0.285
		C65.216,18.756,65.145,19.216,65.073,19.686z M69.106,20.309c0.073-0.476,0.144-0.938,0.216-1.409
		c-0.621-0.095-1.23-0.188-1.848-0.282c-0.072,0.474-0.144,0.937-0.216,1.408C67.879,20.12,68.489,20.214,69.106,20.309z
		 M71.5,19.234c-0.629-0.096-1.24-0.189-1.852-0.283c-0.072,0.478-0.144,0.941-0.215,1.406c0.623,0.095,1.233,0.188,1.852,0.283
		C71.357,20.167,71.428,19.708,71.5,19.234z M74.576,13.767c0.07-0.457,0.138-0.898,0.205-1.341
		c-0.627-0.097-1.244-0.19-1.863-0.285c-0.07,0.452-0.137,0.894-0.205,1.34C73.338,13.577,73.95,13.67,74.576,13.767z
		 M63.881,10.758c-0.627-0.096-1.241-0.19-1.854-0.284c-0.069,0.454-0.137,0.895-0.204,1.337c0.623,0.095,1.234,0.188,1.854,0.283
		C63.744,11.647,63.812,11.212,63.881,10.758z M66.063,11.09c-0.63-0.097-1.241-0.189-1.856-0.284
		c-0.068,0.451-0.136,0.894-0.203,1.334c0.627,0.096,1.242,0.189,1.855,0.283C65.928,11.973,65.996,11.536,66.063,11.09z
		 M68.243,11.423c-0.632-0.097-1.243-0.19-1.858-0.284c-0.068,0.451-0.137,0.893-0.203,1.335c0.624,0.096,1.239,0.189,1.857,0.284
		C68.107,12.309,68.174,11.872,68.243,11.423z M68.36,12.81c0.624,0.096,1.235,0.188,1.851,0.284
		c0.068-0.451,0.137-0.893,0.205-1.338c-0.622-0.095-1.232-0.188-1.852-0.283C68.496,11.92,68.43,12.356,68.36,12.81z
		 M72.594,12.091c-0.629-0.097-1.239-0.19-1.852-0.283c-0.068,0.453-0.136,0.894-0.203,1.335c0.623,0.095,1.234,0.189,1.851,0.283
		C72.459,12.978,72.525,12.541,72.594,12.091z"/>
	<path fill-rule="evenodd" clip-rule="evenodd" fill="#DC008E" d="M66.972,8.013c-0.042,0.275-0.071,0.554-0.13,0.826
		c-0.098,0.459-0.498,0.752-0.96,0.725c-0.441-0.027-0.8-0.38-0.849-0.839c-0.004-0.044-0.007-0.091,0-0.135
		c0.087-0.574,0.161-1.15,0.268-1.72c0.085-0.447,0.539-0.734,1.007-0.676c0.446,0.058,0.816,0.462,0.79,0.904
		c-0.02,0.306-0.088,0.608-0.135,0.912C66.966,8.011,66.969,8.012,66.972,8.013z M66.669,7.974c0.04-0.264,0.087-0.527,0.12-0.793
		c0.041-0.338-0.179-0.624-0.506-0.679c-0.32-0.053-0.629,0.137-0.689,0.465c-0.098,0.531-0.182,1.066-0.247,1.602
		c-0.044,0.365,0.198,0.65,0.534,0.687C66.22,9.29,66.498,9.063,66.558,8.7C66.598,8.458,66.633,8.216,66.669,7.974z"/>
	<path fill-rule="evenodd" clip-rule="evenodd" fill="#DC008E" d="M72.601,8.893c-0.038,0.248-0.073,0.495-0.114,0.743
		c-0.082,0.502-0.512,0.835-1.011,0.785c-0.479-0.047-0.844-0.472-0.815-0.971c0.014-0.237,0.061-0.474,0.096-0.71
		c0.051-0.326,0.092-0.655,0.16-0.978c0.083-0.386,0.391-0.654,0.767-0.705c0.382-0.053,0.759,0.117,0.927,0.469
		c0.08,0.171,0.11,0.382,0.105,0.572C72.705,8.364,72.641,8.628,72.601,8.893z M72.297,8.842c0.039-0.259,0.082-0.518,0.119-0.777
		c0.047-0.336-0.158-0.628-0.484-0.695c-0.321-0.066-0.65,0.123-0.713,0.453c-0.102,0.543-0.186,1.09-0.25,1.638
		c-0.041,0.336,0.214,0.619,0.537,0.656c0.333,0.038,0.621-0.188,0.677-0.531C72.223,9.337,72.26,9.089,72.297,8.842z"/>
</g>
</svg>
