<?xml version="1.0" encoding="utf-8"?>
<!-- Generator: Adobe Illustrator 16.0.0, SVG Export Plug-In . SVG Version: 6.00 Build 0)  -->
<!DOCTYPE svg PUBLIC "-//W3C//DTD SVG 1.1//EN" "http://www.w3.org/Graphics/SVG/1.1/DTD/svg11.dtd">
<svg version="1.1" id="Layer_1" xmlns="http://www.w3.org/2000/svg" xmlns:xlink="http://www.w3.org/1999/xlink" x="0px" y="0px"
	 width="100px" height="30px" viewBox="0 0 100 30" enable-background="new 0 0 100 30" xml:space="preserve">
<rect x="-1" y="-1" fill="#22DC00" width="102" height="32"/>
<polygon fill="#26D102" points="31.579,32.742 65.322,-0.999 103.877,-1.539 101.084,11.909 101.002,31.749 "/>
<g>
	<path fill-rule="evenodd" clip-rule="evenodd" fill="#22DC00" d="M64.603,21.113c0.113,0.201,0.192,0.393,0.314,0.553
		c0.628,0.818,1.838,0.755,2.36-0.14c0.141-0.239,0.249-0.254,0.45-0.123c0.102,0.066,0.223,0.102,0.323,0.167
		c0.071,0.047,0.187,0.145,0.173,0.178c-0.031,0.083-0.114,0.161-0.196,0.207c-0.431,0.241-0.892,0.44-1.299,0.717
		c-0.716,0.487-1.258,1.119-1.405,2.013c-0.03,0.18-0.044,0.359,0.183,0.399c0.214,0.036,0.288-0.112,0.329-0.299
		c0.222-1.033,0.971-1.603,1.834-2.067c0.182-0.096,0.366-0.206,0.563-0.248c0.47-0.103,0.523-0.495,0.607-0.848
		c0.023-0.093-0.103-0.278-0.206-0.34c-0.489-0.291-0.997-0.553-1.498-0.83c-0.528-0.292-0.664-0.728-0.405-1.273
		c0.092-0.196,0.241-0.298,0.449-0.235c1.084,0.326,2.169,0.646,3.241,1.001c0.39,0.13,0.473,0.511,0.492,0.877
		c0.062,1.119-0.241,2.156-0.795,3.107c-0.563,0.971-1.197,1.901-1.767,2.867c-0.15,0.254-0.188,0.581-0.245,0.88
		c-0.036,0.188-0.106,0.298-0.285,0.368c-0.815,0.319-1.653,0.449-2.528,0.395c-1.432-0.092-2.735-0.575-3.978-1.263
		c-0.145-0.08-0.2-0.155-0.175-0.327c0.048-0.323,0.053-0.654,0.103-0.976c0.086-0.539-0.13-0.966-0.506-1.303
		c-0.507-0.452-0.641-1.023-0.589-1.65c0.042-0.532,0.142-1.059,0.221-1.587c0.337-2.263,0.675-4.523,1.014-6.784
		c0.079-0.528,0.292-0.789,0.721-0.891c0.553-0.13,1.115,0.314,1.053,0.882c-0.091,0.846-0.229,1.689-0.355,2.532
		c-0.135,0.908-0.31,1.811-0.411,2.723c-0.118,1.055,0.99,1.842,1.968,1.431C64.435,21.194,64.51,21.155,64.603,21.113z"/>
	<path fill-rule="evenodd" clip-rule="evenodd" fill="#22DC00" d="M69.525,19.033c-0.597-0.179-1.178-0.354-1.732-0.521
		c0.042-0.152,0.099-0.289,0.12-0.43c0.239-1.583,0.474-3.167,0.713-4.75c0.08-0.533,0.477-0.864,0.96-0.823
		c0.444,0.04,0.781,0.38,0.807,0.828c0.006,0.111,0,0.225-0.017,0.335c-0.264,1.711-0.529,3.424-0.796,5.135
		C69.567,18.879,69.546,18.949,69.525,19.033z"/>
	<path fill-rule="evenodd" clip-rule="evenodd" fill="#22DC00" d="M64.913,18.767c-0.063,0.417-0.12,0.833-0.188,1.248
		c-0.08,0.494-0.496,0.821-0.971,0.773c-0.487-0.048-0.856-0.476-0.792-0.979c0.111-0.891,0.243-1.779,0.399-2.662
		c0.088-0.505,0.553-0.779,1.053-0.685c0.458,0.09,0.757,0.514,0.691,1.001C65.048,17.898,64.978,18.334,64.913,18.767z"/>
	<path fill-rule="evenodd" clip-rule="evenodd" fill="#22DC00" d="M67.311,18.345c-0.699-0.037-1.014,0.158-1.198,0.759
		c-0.219,0.708-0.022,1.363,0.507,1.692c0.094,0.06,0.188,0.116,0.279,0.17c-0.095,0.473-0.472,0.753-0.938,0.708
		c-0.452-0.043-0.822-0.415-0.788-0.862c0.038-0.504,0.123-1.003,0.198-1.504c0.094-0.63,0.181-1.26,0.302-1.884
		c0.073-0.367,0.393-0.617,0.755-0.656c0.378-0.044,0.672,0.116,0.842,0.437c0.09,0.171,0.108,0.392,0.115,0.592
		C67.391,17.977,67.339,18.16,67.311,18.345z"/>
</g>
<g>
	<path fill-rule="evenodd" clip-rule="evenodd" fill="#26D102" d="M35.041,11.013c0.185,0.139,0.334,0.281,0.511,0.378
		c0.905,0.495,1.986-0.051,2.103-1.08c0.033-0.275,0.125-0.333,0.362-0.295c0.12,0.021,0.245,0.004,0.363,0.022
		c0.084,0.015,0.229,0.058,0.23,0.094c0.005,0.088-0.04,0.193-0.096,0.269c-0.296,0.395-0.638,0.763-0.898,1.18
		c-0.458,0.734-0.699,1.531-0.473,2.409c0.045,0.177,0.105,0.347,0.328,0.291c0.21-0.053,0.219-0.219,0.181-0.406
		c-0.214-1.034,0.241-1.857,0.843-2.632c0.127-0.16,0.252-0.336,0.414-0.453c0.389-0.284,0.279-0.665,0.213-1.021
		c-0.016-0.094-0.206-0.213-0.325-0.228c-0.565-0.068-1.135-0.103-1.706-0.154c-0.602-0.054-0.901-0.397-0.885-1.002
		c0.005-0.217,0.1-0.37,0.316-0.397c1.123-0.139,2.245-0.285,3.369-0.393c0.409-0.039,0.639,0.277,0.805,0.604
		c0.508,0.999,0.65,2.07,0.527,3.164c-0.123,1.115-0.328,2.223-0.458,3.336c-0.035,0.293,0.062,0.607,0.131,0.903
		c0.042,0.187,0.023,0.316-0.112,0.452c-0.617,0.622-1.331,1.079-2.154,1.383c-1.347,0.493-2.734,0.578-4.148,0.45
		c-0.165-0.016-0.246-0.062-0.292-0.229c-0.086-0.315-0.216-0.62-0.3-0.934c-0.139-0.528-0.508-0.832-0.989-0.988
		c-0.646-0.209-1-0.678-1.205-1.272c-0.177-0.504-0.298-1.025-0.438-1.541c-0.606-2.205-1.209-4.41-1.812-6.615
		c-0.141-0.514-0.052-0.84,0.3-1.106c0.453-0.343,1.147-0.163,1.319,0.382c0.258,0.811,0.472,1.638,0.697,2.459
		c0.244,0.885,0.448,1.781,0.724,2.657c0.317,1.014,1.649,1.285,2.378,0.515C34.92,11.154,34.973,11.089,35.041,11.013z"/>
	<path fill-rule="evenodd" clip-rule="evenodd" fill="#26D102" d="M38.705,7.122C38.087,7.2,37.484,7.273,36.91,7.344
		c-0.023-0.156-0.027-0.304-0.064-0.441C36.425,5.358,36,3.813,35.58,2.269c-0.142-0.52,0.087-0.982,0.546-1.14
		c0.422-0.143,0.869,0.032,1.073,0.433c0.05,0.099,0.091,0.205,0.12,0.312c0.45,1.673,0.898,3.347,1.345,5.02
		C38.681,6.964,38.689,7.038,38.705,7.122z"/>
	<path fill-rule="evenodd" clip-rule="evenodd" fill="#26D102" d="M34.377,8.74c0.111,0.406,0.226,0.811,0.332,1.218
		c0.126,0.484-0.123,0.952-0.576,1.1c-0.465,0.153-0.976-0.089-1.12-0.575c-0.258-0.86-0.496-1.727-0.709-2.597
		c-0.124-0.497,0.191-0.936,0.687-1.051c0.455-0.102,0.9,0.165,1.037,0.637C34.15,7.892,34.262,8.318,34.377,8.74z"/>
	<path fill-rule="evenodd" clip-rule="evenodd" fill="#26D102" d="M36.4,7.386c-0.655,0.249-0.864,0.554-0.79,1.179
		c0.086,0.736,0.53,1.255,1.147,1.343c0.11,0.017,0.219,0.03,0.324,0.043c0.104,0.471-0.127,0.878-0.571,1.025
		c-0.432,0.145-0.92-0.047-1.069-0.471c-0.169-0.476-0.292-0.967-0.426-1.455c-0.169-0.615-0.344-1.226-0.485-1.845
		c-0.082-0.366,0.11-0.724,0.426-0.905c0.328-0.193,0.662-0.166,0.946,0.059c0.151,0.12,0.257,0.314,0.345,0.495
		C36.325,7.018,36.352,7.206,36.4,7.386z"/>
</g>
</svg>
