<?xml version="1.0" encoding="utf-8"?>
<!-- Generator: Adobe Illustrator 16.0.0, SVG Export Plug-In . SVG Version: 6.00 Build 0)  -->
<!DOCTYPE svg PUBLIC "-//W3C//DTD SVG 1.1//EN" "http://www.w3.org/Graphics/SVG/1.1/DTD/svg11.dtd">
<svg version="1.1" xmlns="http://www.w3.org/2000/svg" xmlns:xlink="http://www.w3.org/1999/xlink" x="0px" y="0px" width="100px"
	 height="30px" viewBox="0 0 100 30" enable-background="new 0 0 100 30" xml:space="preserve">
<g id="Layer_1">
	<g id="Layer_1_1_">
		<rect x="-1.123" y="-1" fill="#0C0C0C" width="102" height="32"/>
		<polygon points="-1.125,31.749 -1.207,11.909 -4,-1.539 34.555,-0.999 68.298,32.742 		"/>
	</g>
</g>
<g id="ball">
	<path fill-rule="evenodd" clip-rule="evenodd" fill="#0C0C0C" d="M33.448,25.889c-2.819-0.084-5.578-1.473-7.481-4.359
		C23.551,17.865,24.184,13,27.38,10.003c1.925-1.805,4.216-2.706,6.83-2.662c3.821,0.065,7.303,2.236,8.783,5.979
		c1.573,3.979,0.163,8.43-3.384,10.852C37.938,25.313,36.091,25.889,33.448,25.889z M34.493,9.486
		c-1.705,0.045-3.1,0.447-4.391,1.211c-0.08,0.047-0.167,0.102-0.216,0.177c-0.246,0.372-0.513,0.736-0.713,1.134
		c-0.423,0.837-0.335,1.642,0.255,2.38c0.132,0.165,0.268,0.331,0.421,0.477c0.645,0.611,1.3,1.21,1.942,1.824
		c0.112,0.107,0.214,0.133,0.356,0.104c1.179-0.232,2.359-0.459,3.536-0.699c0.085-0.018,0.192-0.105,0.223-0.186
		c0.512-1.326,1.011-2.656,1.522-3.982c0.054-0.139,0.017-0.209-0.078-0.3c-0.536-0.51-1.098-0.996-1.588-1.546
		C35.349,9.618,34.888,9.417,34.493,9.486z M39.357,19.301c0,0.004,0,0.008,0.001,0.014c0.462-0.037,0.925-0.066,1.386-0.111
		c0.897-0.09,1.294-0.426,1.555-1.295c0.014-0.045,0.03-0.09,0.039-0.137c0.111-0.658,0.211-1.316,0.337-1.973
		c0.054-0.277-0.001-0.522-0.105-0.774c-0.466-1.13-1.208-2.051-2.13-2.837c-0.053-0.046-0.14-0.067-0.212-0.072
		c-0.667-0.041-1.333-0.073-2-0.114c-0.124-0.007-0.194,0.015-0.244,0.147c-0.5,1.338-1.012,2.671-1.511,4.009
		c-0.032,0.086-0.017,0.221,0.03,0.301c0.531,0.928,1.075,1.846,1.609,2.771c0.07,0.121,0.146,0.154,0.282,0.141
		C38.713,19.338,39.036,19.322,39.357,19.301z M25.774,17.631c0.045,0.414,0.072,0.83,0.142,1.238
		c0.052,0.307,0.101,0.639,0.254,0.898c0.231,0.387,0.544,0.729,0.836,1.078c0.563,0.678,1.263,0.861,2.094,0.563
		c0.636-0.227,1.277-0.441,1.912-0.67c0.059-0.023,0.125-0.113,0.131-0.178c0.104-1.072,0.201-2.146,0.289-3.219
		c0.007-0.086-0.036-0.199-0.094-0.266c-0.271-0.316-0.55-0.627-0.835-0.93c-0.458-0.486-0.891-1.002-1.393-1.438
		c-0.685-0.594-1.403-0.613-2.178-0.148c-0.182,0.109-0.359,0.228-0.523,0.361c-0.085,0.07-0.163,0.174-0.198,0.277
		C25.944,15.984,25.79,16.793,25.774,17.631z M28.34,23.506c0.278,0.191,0.529,0.383,0.796,0.547
		c1.226,0.752,2.505,1.34,3.994,1.252c0.533-0.031,1.068-0.045,1.597-0.109c0.539-0.064,0.73-0.297,0.659-0.828
		c-0.07-0.52-0.204-1.031-0.324-1.541c-0.015-0.064-0.108-0.127-0.179-0.158c-1.099-0.463-2.199-0.924-3.304-1.375
		c-0.098-0.039-0.232-0.043-0.333-0.012c-0.547,0.168-1.093,0.344-1.634,0.531c-0.289,0.1-0.576,0.213-0.846,0.352
		c-0.097,0.051-0.217,0.211-0.203,0.299C28.625,22.836,28.53,23.162,28.34,23.506z M37.313,24.684
		c0.023-0.002,0.111,0.002,0.194-0.018c0.161-0.037,0.324-0.07,0.476-0.131c1.552-0.621,2.761-1.658,3.676-3.049
		c0.032-0.049,0.057-0.119,0.049-0.172c-0.05-0.342-0.089-0.688-0.174-1.021c-0.132-0.52-0.378-0.686-0.912-0.625
		c-0.788,0.092-1.574,0.199-2.359,0.307c-0.07,0.01-0.146,0.059-0.197,0.111c-0.787,0.793-1.571,1.586-2.351,2.385
		c-0.047,0.049-0.091,0.143-0.076,0.201c0.142,0.531,0.291,1.061,0.624,1.514C36.507,24.516,36.83,24.699,37.313,24.684z
		 M36.398,8.056c-2.798-0.641-5.392-0.219-7.805,1.488c0.468,0.155,0.872,0.279,1.27,0.425c0.138,0.05,0.24,0.04,0.371-0.027
		c1.5-0.772,3.087-1.131,4.778-0.998c0.072,0.006,0.163-0.002,0.219-0.041C35.62,8.629,36.001,8.345,36.398,8.056z M39.686,9.649
		c0.218,0.339,0.431,0.619,0.589,0.928c0.179,0.352,0.252,0.768,0.474,1.083c0.229,0.326,0.608,0.544,0.875,0.85
		c0.389,0.447,0.737,0.932,1.094,1.389C42.174,12.187,41.148,10.796,39.686,9.649z M25.714,13.14
		c-0.012-0.002-0.024-0.005-0.036-0.008c-0.023,0.048-0.048,0.094-0.068,0.142c-0.605,1.447-0.77,2.955-0.591,4.505
		c0.014,0.121,0.086,0.236,0.132,0.354c0.054-0.066,0.065-0.119,0.062-0.17c-0.053-0.961,0.08-1.896,0.364-2.813
		c0.061-0.194,0.186-0.385,0.19-0.578C25.778,14.095,25.735,13.618,25.714,13.14z"/>
	<path fill-rule="evenodd" clip-rule="evenodd" d="M63.181,13.86c-1.121-0.033-2.219-0.585-2.976-1.734
		c-0.961-1.458-0.71-3.393,0.562-4.585c0.767-0.718,1.678-1.077,2.718-1.059c1.521,0.026,2.905,0.89,3.494,2.378
		c0.626,1.583,0.065,3.354-1.347,4.318C64.968,13.631,64.232,13.86,63.181,13.86z M63.597,7.334
		c-0.678,0.018-1.233,0.178-1.747,0.482c-0.031,0.019-0.066,0.041-0.086,0.07c-0.098,0.148-0.204,0.293-0.283,0.451
		c-0.169,0.333-0.134,0.653,0.101,0.947c0.053,0.066,0.106,0.132,0.168,0.189c0.257,0.243,0.518,0.482,0.772,0.726
		c0.045,0.043,0.085,0.053,0.142,0.042c0.469-0.093,0.938-0.183,1.407-0.278c0.034-0.007,0.076-0.042,0.088-0.074
		c0.204-0.527,0.403-1.057,0.606-1.584c0.021-0.055,0.006-0.083-0.031-0.119c-0.214-0.203-0.437-0.396-0.632-0.615
		C63.938,7.387,63.754,7.307,63.597,7.334z M65.532,11.239c0,0.001,0,0.003,0,0.005c0.184-0.015,0.368-0.026,0.552-0.044
		c0.356-0.036,0.515-0.169,0.618-0.515c0.006-0.018,0.012-0.036,0.016-0.054c0.044-0.262,0.084-0.524,0.134-0.785
		c0.021-0.11-0.001-0.208-0.042-0.308c-0.185-0.45-0.479-0.816-0.847-1.129c-0.021-0.018-0.056-0.027-0.085-0.029
		c-0.265-0.016-0.53-0.029-0.795-0.045c-0.05-0.002-0.078,0.006-0.098,0.059c-0.199,0.532-0.402,1.063-0.602,1.595
		c-0.013,0.034-0.006,0.088,0.013,0.12c0.211,0.369,0.428,0.734,0.64,1.103c0.027,0.048,0.058,0.062,0.112,0.056
		C65.276,11.254,65.404,11.248,65.532,11.239z M60.128,10.575c0.018,0.165,0.029,0.33,0.057,0.493
		c0.021,0.122,0.04,0.254,0.102,0.357c0.092,0.154,0.217,0.29,0.332,0.429c0.224,0.27,0.503,0.343,0.833,0.224
		c0.254-0.09,0.509-0.176,0.761-0.267c0.023-0.009,0.05-0.045,0.053-0.071c0.041-0.427,0.08-0.854,0.114-1.28
		c0.003-0.034-0.014-0.08-0.037-0.106c-0.107-0.126-0.218-0.25-0.332-0.37c-0.183-0.194-0.354-0.399-0.554-0.572
		c-0.272-0.236-0.559-0.244-0.867-0.059c-0.072,0.043-0.143,0.09-0.207,0.144c-0.035,0.028-0.065,0.069-0.079,0.11
		C60.195,9.92,60.134,10.241,60.128,10.575z M61.149,12.912c0.11,0.076,0.21,0.152,0.316,0.218c0.487,0.299,0.996,0.533,1.589,0.498
		c0.212-0.013,0.425-0.018,0.636-0.044c0.214-0.025,0.29-0.118,0.262-0.329c-0.027-0.207-0.081-0.41-0.129-0.613
		c-0.006-0.025-0.043-0.05-0.071-0.063c-0.438-0.184-0.875-0.368-1.314-0.547c-0.039-0.016-0.092-0.017-0.133-0.005
		c-0.218,0.067-0.435,0.137-0.649,0.211c-0.115,0.04-0.229,0.085-0.337,0.14c-0.039,0.02-0.087,0.083-0.081,0.119
		C61.263,12.646,61.225,12.775,61.149,12.912z M64.719,13.381c0.01-0.001,0.044,0,0.078-0.007c0.063-0.015,0.129-0.028,0.188-0.052
		c0.618-0.248,1.099-0.66,1.463-1.213c0.013-0.019,0.022-0.047,0.02-0.068c-0.02-0.136-0.035-0.273-0.069-0.406
		c-0.053-0.207-0.15-0.272-0.362-0.249c-0.313,0.037-0.627,0.079-0.938,0.122c-0.028,0.004-0.059,0.023-0.079,0.044
		c-0.313,0.316-0.625,0.631-0.936,0.949c-0.019,0.02-0.036,0.057-0.03,0.08c0.057,0.211,0.116,0.422,0.249,0.603
		C64.398,13.314,64.527,13.387,64.719,13.381z M64.354,6.766c-1.113-0.255-2.145-0.087-3.105,0.592
		c0.187,0.062,0.348,0.111,0.506,0.169c0.055,0.02,0.095,0.016,0.147-0.011c0.597-0.307,1.229-0.45,1.9-0.397
		c0.029,0.002,0.065-0.001,0.087-0.017C64.045,6.994,64.197,6.88,64.354,6.766z M65.663,7.399c0.086,0.135,0.171,0.247,0.233,0.369
		c0.072,0.14,0.101,0.306,0.189,0.431c0.091,0.13,0.242,0.216,0.348,0.338c0.155,0.178,0.293,0.371,0.436,0.552
		C66.653,8.409,66.245,7.855,65.663,7.399z M60.104,8.788c-0.005-0.001-0.01-0.002-0.015-0.003
		c-0.009,0.019-0.019,0.037-0.027,0.056c-0.24,0.576-0.306,1.175-0.234,1.792c0.006,0.048,0.034,0.094,0.052,0.141
		c0.022-0.026,0.026-0.047,0.025-0.067c-0.021-0.382,0.031-0.755,0.145-1.119c0.023-0.078,0.073-0.153,0.075-0.23
		C60.13,9.168,60.112,8.978,60.104,8.788z"/>
</g>
</svg>
