<?xml version="1.0" encoding="utf-8"?>
<!-- Generator: Adobe Illustrator 16.0.0, SVG Export Plug-In . SVG Version: 6.00 Build 0)  -->
<!DOCTYPE svg PUBLIC "-//W3C//DTD SVG 1.1//EN" "http://www.w3.org/Graphics/SVG/1.1/DTD/svg11.dtd">
<svg version="1.1" id="Layer_1" xmlns="http://www.w3.org/2000/svg" xmlns:xlink="http://www.w3.org/1999/xlink" x="0px" y="0px"
	 width="100px" height="30px" viewBox="0 0 100 30" enable-background="new 0 0 100 30" xml:space="preserve">
<style>
.lettere:hover {
	fill: #03aad6;
	cursor: pointer;
}
</style>
<g id="Layer_1_1_">
	<rect x="-1.123" y="-1" fill="#00A5DC" width="102" height="32"/>
	<polygon fill="#03AAD6" points="-1.125,31.749 -1.207,11.909 -4,-1.539 34.555,-0.999 68.298,32.742 	"/>
</g>
<g enable-background="new    ">
	<path id="lettere" fill="#0289A8" d="M43.589,23.856h-1.487v0.959h1.661v0.75h-2.579v-4.042h2.495v0.75h-1.577v0.839h1.487V23.856z"/>
	<path fill="#0097BF" d="M44.39,25.565v-4.042h1.067l0.839,1.481c0.24,0.426,0.479,0.93,0.659,1.385h0.019
		c-0.061-0.533-0.078-1.079-0.078-1.685v-1.182h0.84v4.042h-0.96l-0.863-1.56c-0.24-0.432-0.504-0.953-0.702-1.427l-0.018,0.006
		c0.024,0.534,0.036,1.104,0.036,1.763v1.218H44.39z"/>
	<path fill="#0097BF" d="M51.907,25.38c-0.281,0.096-0.815,0.228-1.349,0.228c-0.737,0-1.271-0.186-1.644-0.546
		c-0.371-0.348-0.575-0.875-0.569-1.469c0.006-1.344,0.983-2.111,2.309-2.111c0.521,0,0.924,0.103,1.121,0.198l-0.191,0.731
		c-0.222-0.096-0.498-0.174-0.941-0.174c-0.762,0-1.338,0.432-1.338,1.308c0,0.833,0.522,1.325,1.271,1.325
		c0.21,0,0.378-0.024,0.45-0.061v-0.846h-0.624v-0.713h1.505V25.38z"/>
	<path fill="#0097BF" d="M52.625,21.523h0.918v3.274h1.606v0.768h-2.524V21.523z"/>
	<path fill="#0097BF" d="M56.669,24.528l-0.287,1.037h-0.948l1.235-4.042h1.199l1.254,4.042h-0.983l-0.313-1.037H56.669z
		 M57.694,23.845l-0.251-0.857c-0.072-0.24-0.145-0.54-0.204-0.78h-0.013c-0.06,0.24-0.119,0.546-0.186,0.78l-0.24,0.857H57.694z"/>
	<path fill="#0097BF" d="M59.665,25.565v-4.042h1.067l0.84,1.481c0.24,0.426,0.479,0.93,0.659,1.385h0.019
		c-0.061-0.533-0.078-1.079-0.078-1.685v-1.182h0.84v4.042h-0.96l-0.863-1.56c-0.24-0.432-0.504-0.953-0.701-1.427l-0.019,0.006
		c0.024,0.534,0.036,1.104,0.036,1.763v1.218H59.665z"/>
	<path fill="#0097BF" d="M63.807,21.577c0.336-0.054,0.773-0.083,1.235-0.083c0.768,0,1.266,0.138,1.655,0.432
		c0.42,0.312,0.684,0.81,0.684,1.522c0,0.773-0.282,1.308-0.672,1.638c-0.426,0.354-1.073,0.521-1.864,0.521
		c-0.474,0-0.81-0.03-1.038-0.06V21.577z M64.725,24.876c0.078,0.018,0.204,0.018,0.317,0.018c0.828,0.006,1.367-0.449,1.367-1.415
		c0.006-0.84-0.485-1.283-1.271-1.283c-0.204,0-0.336,0.018-0.414,0.036V24.876z"/>
</g>
<g enable-background="new    ">
	<path fill="#028DB2" d="M37.31,16.439l0.128,0.146l0.023-0.026l0.025,0.025l0.008,0.15c0.003,0.033-0.044,0.062-0.139,0.084
		l-0.003-0.026c-0.146,0.059-0.264,0.133-0.35,0.222l-0.072-0.021l0.025,0.025l0.002,0.024l-0.251,0.269l-0.001-0.027l0.088-0.131
		l-0.049,0.003c0.004,0.066-0.025,0.103-0.089,0.105c0.005,0.112-0.036,0.225-0.126,0.337c-0.104,0.168-0.151,0.332-0.142,0.489
		l0.002,0.052c0.072,0.08,0.171,0.117,0.297,0.111l0.192-0.012c0.225-0.012,0.621-0.107,1.191-0.29
		c0.06-0.003,0.123-0.032,0.188-0.086l0.146,0.017c-0.002-0.05,0.012-0.076,0.043-0.078l0.049-0.002
		c0.005,0.084-0.033,0.129-0.112,0.133l0.001,0.025l0.025,0.023l0.001,0.025l-0.377,0.147l-0.027-0.024
		c-0.007,0.051-0.069,0.079-0.188,0.086l-0.025-0.023l-0.024,0.001l-0.041,0.128l-0.025-0.023L37.631,18.3l-0.14,0.085l-0.025-0.023
		l-0.024,0.002l-0.403,0.121l-0.001-0.026l-0.309,0.093c-0.438-0.046-0.667-0.254-0.688-0.623c0.165-0.508,0.439-0.912,0.826-1.21
		C37.007,16.561,37.155,16.469,37.31,16.439z M36.362,17.673l0.051,0.048l-0.006-0.1L36.362,17.673z M36.431,17.596
		c0.052-0.036,0.119-0.131,0.201-0.282l-0.023,0.003C36.487,17.458,36.428,17.552,36.431,17.596z M38.59,17.772l0.12,0.019
		l0.004,0.025l-0.049,0.002c0.001,0.049-0.013,0.073-0.044,0.076l-0.146,0.008l-0.001-0.023c0.048-0.004,0.071-0.021,0.068-0.054
		l-0.025-0.023l0.023-0.025L38.59,17.772z M38.873,17.658l0.12-0.006l0.004,0.05l-0.287,0.063L38.873,17.658z"/>
	<path fill="#028DB2" d="M38.965,16.227c0.17-0.02,0.34,0.15,0.507,0.51l0.022,0.015l0.002,0.017l-0.009,0.102
		c0.035-0.005,0.075,0.052,0.117,0.17c0.055,0.027,0.114,0.037,0.179,0.029l0.021,0.016l0.002,0.016
		c0.002,0.022-0.027,0.038-0.091,0.045l0.002,0.016l0.053,0.129l-0.021-0.016l-0.019,0.002l0.004,0.035l0.019-0.003l0.017-0.019
		l0.021-0.002c0.026,0.096,0.051,0.143,0.074,0.141l-0.018,0.02l0.004,0.033l0.02-0.003l-0.003-0.033l0.037-0.005l0.101,0.189
		l-0.017,0.019c0.033-0.004,0.068,0.02,0.104,0.07l-0.017,0.021l0.002,0.016c0.085,0.064,0.133,0.145,0.144,0.234l-0.081,0.145
		l-0.037,0.004c-0.182-0.024-0.275-0.053-0.282-0.084c0.112-0.038,0.167-0.066,0.164-0.088c-0.005-0.041-0.147-0.27-0.43-0.686
		c-0.02,0.002-0.041-0.018-0.064-0.061c-0.078,0.01-0.115,0.031-0.111,0.064l-0.021-0.014l-0.019,0.002l-0.07,0.076l-0.021-0.016
		l-0.018,0.002c-0.109,0.035-0.194,0.079-0.258,0.131l-0.06-0.011c-0.017,0.032-0.096,0.087-0.234,0.163l-0.067,0.258l0.022,0.014
		l0.019-0.002l-0.046,0.107l0.021,0.015l0.002,0.017c-0.021,0.153-0.049,0.252-0.082,0.294c0.004,0.032-0.007,0.049-0.031,0.052
		l0.088,0.259l-0.09,0.061c-0.104,0.004-0.16-0.029-0.168-0.099c-0.013-0.111-0.001-0.291,0.035-0.537
		c-0.259,0.012-0.395-0.045-0.409-0.171l-0.004-0.032c0.087-0.078,0.261-0.199,0.521-0.364
		C38.634,16.668,38.792,16.248,38.965,16.227z M38.324,17.893l0.004,0.032l0.097-0.011l0.007-0.1l-0.019,0.002L38.324,17.893z
		 M39.026,16.422l-0.194,0.322l0.021,0.016l0.002,0.016l-0.017,0.02l-0.021,0.002l-0.021-0.015l0.002,0.017l0.026,0.064
		l-0.019,0.002l0.021,0.016l0.004,0.031l-0.033,0.037l-0.01-0.081l-0.021,0.003l-0.036,0.188l0.002,0.017l0.021-0.003L38.75,17.04
		l0.019-0.003l0.004,0.033c-0.005,0.067-0.021,0.104-0.046,0.105l-0.021-0.016l0.032,0.114l0.01,0.083l0.277-0.117l0.022,0.014
		l0.019-0.002l0.259-0.112l0.06,0.009l0.017-0.018l0.021,0.014l0.019-0.019l-0.002-0.017c-0.012-0.094-0.143-0.324-0.393-0.69
		L39.026,16.422z"/>
	<path fill="#028DB2" d="M40.83,15.983c0.363-0.043,0.685,0.094,0.964,0.41l0.056,0.179c0.011,0.086-0.147,0.24-0.475,0.465
		c-0.257,0.192-0.494,0.301-0.711,0.326l-0.019,0.002c0.021,0.178,0.101,0.393,0.24,0.643c-0.006,0.047-0.043,0.09-0.113,0.125
		c-0.098-0.033-0.157-0.074-0.18-0.127l0.005-0.114c-0.211-0.583-0.337-1.026-0.376-1.333l-0.02,0.003
		c-0.027,0.006-0.054,0.091-0.078,0.251l0.024,0.051l-0.019,0.003l0.021,0.017l0.002,0.02c0.008,0.064-0.011,0.111-0.057,0.137
		l-0.019,0.002c-0.032,0.004-0.063-0.055-0.094-0.177l-0.009-0.071C39.93,16.408,40.214,16.139,40.83,15.983z M40.453,16.363
		l0.026,0.22l-0.016,0.021l0.024,0.053l0.077,0.496l0.059,0.03c0.419-0.149,0.72-0.341,0.902-0.572l0.076-0.141
		c-0.172-0.228-0.391-0.325-0.657-0.294l-0.056,0.006C40.61,16.242,40.466,16.303,40.453,16.363z"/>
	<path fill="#028DB2" d="M41.479,15.93l0.124-0.015c0.075,0.04,0.114,0.074,0.118,0.105l0.063,0.896l0.007,0.058
		c0.045,0.382,0.171,0.683,0.38,0.899l0.002,0.019l-0.036,0.044c-0.29,0.033-0.498-0.296-0.623-0.987l-0.019-0.156
		C41.43,16.224,41.423,15.937,41.479,15.93z M41.688,16.188l-0.01-0.032l-0.011-0.001l-0.002,0.032l0.01,0.097h0.012L41.688,16.188z
		"/>
	<path fill="#028DB2" d="M42.535,15.809l0.05,0.016l0.014-0.023l0.094,0.011c0.608-0.032,0.92,0.013,0.934,0.136l0.024,0.086
		l-0.025,0.047l0.02,0.021l-0.104,0.058c-0.222-0.094-0.493-0.12-0.816-0.082l-0.279,0.032c-0.029,0.003-0.02,0.396,0.027,1.177
		l0.044,0.373l0.029,0.107c-0.047,0.079-0.085,0.119-0.112,0.123c-0.062-0.082-0.102-0.195-0.118-0.342l-0.025-0.218l-0.07-1.127
		l-0.005-0.045l-0.708,0.151c-0.052,0.006-0.096-0.049-0.131-0.163l0.014-0.158l0.236-0.005l0.852-0.146L42.535,15.809z"/>
	<path fill="#028DB2" d="M43.661,15.676c0.171-0.02,0.339,0.15,0.508,0.51l0.021,0.014l0.002,0.018l-0.008,0.101
		c0.035-0.005,0.074,0.052,0.116,0.171c0.055,0.027,0.115,0.037,0.179,0.029l0.021,0.015l0.002,0.017
		c0.003,0.021-0.028,0.037-0.091,0.045l0.002,0.015l0.053,0.129l-0.02-0.015l-0.02,0.002l0.004,0.034l0.02-0.003l0.016-0.019
		l0.021-0.002c0.026,0.096,0.052,0.144,0.074,0.141l-0.018,0.02l0.004,0.033l0.021-0.003l-0.004-0.033l0.037-0.004l0.101,0.189
		l-0.017,0.018c0.033-0.004,0.068,0.02,0.104,0.07l-0.017,0.02l0.002,0.018c0.086,0.064,0.133,0.144,0.144,0.234l-0.08,0.144
		l-0.037,0.005c-0.183-0.025-0.276-0.053-0.283-0.084c0.112-0.039,0.167-0.067,0.165-0.088c-0.006-0.041-0.148-0.271-0.43-0.686
		c-0.021,0.002-0.042-0.018-0.066-0.061c-0.077,0.009-0.114,0.031-0.11,0.064l-0.021-0.015l-0.019,0.003l-0.069,0.075l-0.021-0.015
		l-0.019,0.002c-0.108,0.035-0.194,0.078-0.257,0.131l-0.06-0.012c-0.018,0.033-0.096,0.088-0.234,0.164l-0.067,0.258l0.022,0.014
		l0.019-0.002l-0.045,0.107l0.02,0.014l0.002,0.017c-0.021,0.153-0.048,0.252-0.082,0.294c0.004,0.032-0.007,0.049-0.031,0.053
		l0.089,0.258l-0.091,0.061c-0.104,0.004-0.16-0.029-0.168-0.098c-0.014-0.112-0.002-0.292,0.035-0.538
		c-0.258,0.012-0.395-0.045-0.409-0.171L42.666,17.3c0.087-0.078,0.261-0.198,0.521-0.364C43.33,16.116,43.487,15.696,43.661,15.676
		z M43.02,17.341l0.004,0.032l0.098-0.011l0.007-0.1l-0.019,0.002L43.02,17.341z M43.724,15.87l-0.195,0.323l0.021,0.015
		l0.002,0.017l-0.017,0.019l-0.021,0.003l-0.021-0.016l0.002,0.018l0.026,0.064l-0.019,0.002l0.021,0.015l0.004,0.032l-0.033,0.037
		l-0.01-0.082l-0.02,0.003l-0.036,0.188l0.001,0.016l0.021-0.002l-0.004-0.033l0.02-0.002l0.003,0.033
		c-0.005,0.066-0.021,0.103-0.046,0.105l-0.021-0.016l0.032,0.113l0.01,0.084l0.278-0.117l0.021,0.014l0.019-0.002l0.259-0.113
		l0.06,0.01l0.017-0.019l0.021,0.015l0.019-0.02l-0.002-0.016c-0.011-0.095-0.142-0.324-0.394-0.691L43.724,15.87z"/>
	<path fill="#028DB2" d="M45.566,15.422l0.165,0.103l0.004,0.041c-0.029,0.034-0.053,0.125-0.068,0.273
		c-0.073,0.035-0.144,0.152-0.213,0.354c-0.171,0.396-0.244,0.705-0.219,0.923c0.021,0.188,0.199,0.263,0.53,0.224l1.621-0.394
		l0.002,0.021l0.023-0.023l0.024-0.003c0.101,0.002,0.153,0.017,0.156,0.042c-0.067,0.091-0.129,0.14-0.185,0.146l-0.003-0.021
		l-0.261,0.132l-0.028-0.018l-0.024,0.003l-0.365,0.126l-0.103-0.01c0.004,0.029-0.174,0.084-0.535,0.165l-0.027-0.018l-0.023,0.003
		l-0.17,0.061l-0.003-0.02l-0.073,0.029c-0.536,0.019-0.819-0.098-0.849-0.35l-0.044-0.158c-0.027-0.236,0.153-0.775,0.543-1.618
		L45.566,15.422z"/>
</g>
<g>
	<path fill="#028DB2" d="M37.975,19.626c0,0-0.013,0.206-0.033,0.516c0.045,0.143,0.038,0.317,0.129,0.48
		c0.082,0.167,0.182,0.334,0.331,0.471c0.251,0.307,0.597,0.538,0.869,0.675c0.264,0.156,0.46,0.228,0.46,0.228l-0.003,0.01
		c0,0-0.049-0.017-0.135-0.045c-0.087-0.024-0.208-0.072-0.347-0.141c-0.281-0.129-0.642-0.35-0.918-0.66
		c-0.15-0.147-0.249-0.329-0.329-0.509c-0.088-0.174-0.077-0.367-0.114-0.517c0.042-0.306,0.08-0.51,0.08-0.51L37.975,19.626z"/>
</g>
<g>
	<path fill="#028DB2" d="M39.693,20.937c0.193,0.376,0.303,0.776,0.448,1.167l0.023,0.063l-0.06,0.034l-0.505,0.286
		c-0.144,0.118-0.3,0.224-0.47,0.328l-0.008-0.006l0.441-0.379l0.489-0.311l-0.004,0.011l-0.364-1.192L39.693,20.937z"/>
</g>
</svg>
