<svg xmlns="http://www.w3.org/2000/svg" xmlns:xlink="http://www.w3.org/1999/xlink" width="1920" height="310" viewBox="0 0 1920 310"><path fill="#0E0E0E" d="M717.6 588.4l25.6-.8 32.7 2.9 17.3-1.3 9.3-.5s-6.5-37.3-18.3-41.4c0 0-24.8-29.9-53.6-9.5 0 0-29.2 20.9-23.3 45.8 2.5 4.6 10.3 4.8 10.3 4.8"/><path fill="#D5D5D5" d="M705.8 505.3l14.9-3.7 4.9.7.8 4.3-3.8 4.2s-18.3 19-18.5 19.1c-.2.1-24.8 1.4-25 1.4-.2 0-8.9-.8-8.9-.8s7.7-14.8 15-17.2c-.1.2 18.2-7.9 20.6-8"/><path fill="#3A3A3A" d="M759.3 491s8.8-3.1 20.2-2.6l3 3.6-18.4 1.8-5.6-1 .8-1.8z"/><path fill="#E5E3E4" stroke="#C8C8C8" stroke-width=".25" d="M907.7 425.5c19.1-2.3 38.5-2.6 57.6-3.8 23.7-1.5 47.4-2.6 71.2-2.8 9.8-.1 19.7 0 29.5.5 7.4.4 15.2 2.3 22.5 2.3 0 0 20-1.6 20 13.2 0 0 18.8 28.2 15.6 108.4l-1 2h-6.6l-2 2.2-22.4 3.4s-23-28-55.4-7c0 0-19.8 11-20.6 42.2l-218.7 3.2v-1s.8-56.2-45.8-53.6c0 0-15.2-1.6-29.2 13.6l-23.4-.2s-7.8-3.2-2.8-8.2c0 0-31.2 1.4-32.2.4 0 0 2.4-6.8 6.8-10.2 0 0 27.8.4 31-1 0 0 18.2-19.6 22.8-22.2 0 0 1.6-5.2-7.2-4l-12.8 2.8s46.6-13.4 54.6-14.6c0 0 4 3.8 20.2-2.6 12.4-9.2 25.1-17.9 38-26.3 10.8-7 21.8-13.8 33.1-20 18-9.8 37.4-14.3 57.2-16.7"/><path fill="#353535" d="M1098.4 422.6s22.8 48.1 19.2 123l-2.1.6s4.1-61-18.7-124l1.6.4z"/><path fill="#DDDDDC" d="M817 529.4c2 0 175.5-3 175.5-3h11.6s2.4 2.8-8.4 5l-172.1 10.8s-12.6 2.4-17.6-7.9c0 0-.9-4.8 11-4.9"/><path fill="none" stroke="#7F7F7F" stroke-width=".6" stroke-miterlimit="10" d="M927.4 429s-9.8 111.6-10 148.9c0 5-11.6 2.7-14.4 2.6-11.6-.3-23.1.1-34.7.3-3.2.1-6.4.1-9.7.2-8.5.1-17 .3-25.4.5-4.2.1-8.5.2-12.7.2-2.1 0-4.2.1-6.4.1-1.4 0-4.2.6-5.4-.5-1.6-.9-2.8-3-3.5-4.6 0 0-6.8-23.2-7.2-33l-.8-19.8v-19.2s2-21.8 2-22c.2-1.9 4.8-5.8 6.1-7.2 7.7-7.9 17-14.2 26.4-19.8 22.6-13.6 49.7-21.9 75.6-26.2 6.4-.9 13.8-2.3 20.1-.5z"/><path fill="#2B2B2B" d="M780.8 500.2s47.4-41.8 78-53.6c8-3.1 16.6-5 24.9-6.8 5.7-1.2 11.3-2.2 17.1-3 4.2-.6 10.9-2.3 14.3 1.1 2.4 2.4 2.1 6.2 1.5 9.2-.9 4.3-1.8 8.5-2.7 12.8-1.2 5.5-1.9 11.2-3.5 16.5-1.4 4.8-5.7 8.2-9.5 11.1-3.5 2.7-7.4 4.6-11.7 5.7-9.6 2.3-19.4 3.9-29.2 5.6-11.3 2-22.6 3.7-34.1 4.3l-39.6 2.8c.1.1-8.6 2.1-5.5-5.7"/><path fill="#414846" d="M809.8 486.6s-1.4-6.8 3-7.6h6v2l3.8.4-1.4 10 1.4 3.8 1.9 3.1-6.1 3.9h-8.8s-1.2-14 .2-15.6"/><path fill="#3E3E3E" d="M821.2 491.4s-.6-13.4 9.8-13.6c0 0 7.6 4 7.4 12.8 0 0 .2 8.4-7.4 9.2 0 0-9.6 4-9.8-8.4"/><path fill="#EEE" d="M906.5 511.5c0 3.5-3.3 6.4-7.4 6.4-4.1 0-7.4-2.9-7.4-6.4 0-3.5 3.3-6.4 7.4-6.4 4.1 0 7.4 2.9 7.4 6.4"/><path fill="#212221" d="M912.3 513l-24.9.9c-1 0-1.9-.8-1.9-1.8s.8-1.9 1.8-1.9l24.9-.9c1 0 1.9.8 1.9 1.8s-.8 1.8-1.8 1.9"/><g opacity=".08"><defs><path id="a" d="M891.6 504.6h14.9v7.4h-14.9z"/></defs><clipPath id="b"><use xlink:href="#a" overflow="visible"/></clipPath><path clip-path="url(#b)" fill="#212221" d="M891.6 512.1h14.9s.2-6.4-7.4-7.4c0-.1-8 2-7.5 7.4"/></g><path fill="#262626" d="M822.6 548.6s77-6.7 96-6.2l83-2.4h5s5.8 1.4 2 7l-4.2 6.2s-.6 1-10 1l-178.5 5.4s-3.6.2-1.2-5.2c-.1 0 3.3-5.4 7.9-5.8"/><path fill="#020202" d="M918 542.4s.7 6.7-.3 14.1h1.5s1.1-9.3.1-14c.1-.1-1.3-.1-1.3-.1"/><path fill="#0E0E0E" d="M1023.4 588.4l25.6-.8 34.8-.8 16.2-2.2 4.2-1s-5.6-28-12.6-33.4c0 0-22-25.9-51.8-8.2 0 0-23.6 15.8-22 40.2 2.5 4.7 5.6 6.2 5.6 6.2"/><path fill="#1D1D1D" d="M1093.5 581.5c0 19-15.4 34.5-34.5 34.5s-34.5-15.4-34.5-34.5S1040 547 1059 547s34.5 15.4 34.5 34.5"/><path fill="#E8E7E7" d="M1083.4 581.3c0 13.6-11 24.6-24.6 24.6s-24.6-11-24.6-24.6 11-24.6 24.6-24.6 24.6 11.1 24.6 24.6"/><path fill="#C8C8C8" d="M1080.4 581.5c0 11.8-9.5 21.3-21.3 21.3s-21.3-9.5-21.3-21.3 9.5-21.3 21.3-21.3 21.3 9.5 21.3 21.3"/><path fill="#C0C0C0" d="M1072.9 581.6c0 7.6-6.2 13.8-13.8 13.8-7.6 0-13.8-6.2-13.8-13.8 0-7.6 6.2-13.8 13.8-13.8 7.7 0 13.8 6.2 13.8 13.8"/><path fill="#E5E5E4" d="M1065.3 581.6c0 3.4-2.8 6.1-6.1 6.1-3.4 0-6.1-2.8-6.1-6.1 0-3.4 2.8-6.1 6.1-6.1 3.4-.1 6.1 2.7 6.1 6.1"/><circle fill="none" stroke="#9D9D9D" stroke-width=".5" stroke-miterlimit="10" cx="1059.2" cy="581.6" r="6.1"/><path fill="#1D1D1D" d="M787.8 581.5c0 19-15.4 34.5-34.5 34.5-19 0-34.5-15.4-34.5-34.5s15.4-34.5 34.5-34.5c19 0 34.5 15.4 34.5 34.5"/><path fill="#E8E7E7" d="M777.7 581.3c0 13.6-11 24.6-24.6 24.6-13.6 0-24.6-11-24.6-24.6s11-24.6 24.6-24.6c13.6 0 24.6 11.1 24.6 24.6"/><path fill="#C8C8C8" d="M774.7 581.3c0 11.8-9.5 21.3-21.3 21.3s-21.3-9.5-21.3-21.3 9.5-21.3 21.3-21.3 21.3 9.6 21.3 21.3"/><path fill="#C0C0C0" d="M767.2 581.3c0 7.6-6.2 13.8-13.8 13.8s-13.8-6.2-13.8-13.8 6.2-13.8 13.8-13.8 13.8 6.2 13.8 13.8"/><path fill="#E5E5E4" d="M759.6 581.6c0 3.4-2.8 6.1-6.1 6.1-3.4 0-6.1-2.8-6.1-6.1 0-3.4 2.8-6.1 6.1-6.1 3.3-.1 6.1 2.7 6.1 6.1"/><circle fill="none" stroke="#9D9D9D" stroke-width=".5" stroke-miterlimit="10" cx="753.5" cy="581.6" r="6.1"/><path fill="#1E1E1E" d="M1092.1 550.8l22.4-3.4 2-2.2h6.6s4.5 4.6 4.9 6c.4 1.4 1.2 6 .6 7.7 0 0 1.6 2.4 1.6 3.6 0 0 8.6 1.4 4.2 10.2 0 0-12.4 12.3-31.5 12.6 0 0-2.5-24.7-10.8-34.5"/><path fill="#212120" d="M663.5 540s31.6-.1 32.2-.2c.6 0-4.9 3.7 3.4 8.2l23.4.2s-16 13.7-10 41l.4 1.3s-39.6-4-44.5-8.4c0-.1-14.2-3.2-4.9-42.1"/><path fill="#484748" d="M667.8 556.7l10.9.4s10.3 10.6 12.1 18.2h-20.6c0 .1-14.5-7.8-2.4-18.6"/><path fill="#070707" d="M668.7 558.3l9.2.9 5.8 7.4 3.5 5.9h-16.5"/><path fill="#2F2F2F" d="M668.7 558.3s9.3 1.5 11.9 6.8c0 0-2.3 6.7-10.2 7.5 0 0 .7-3.9.5-4.8-.2-.9-1.7-5.5-1.7-5.5l-.5-4z"/><path fill="#1E1E1E" d="M673.3 564.6c.9 3.9-.3 7.4-2.6 7.9-2.3.5-4.8-2.2-5.7-6-.9-3.9.3-7.4 2.6-7.9s4.8 2.1 5.7 6"/><path fill="#700E19" d="M1114.7 485.1l7.5-.4s2.7 22.5 2.2 31.8c0 0 .5 12.7 0 15.1h-6.7s-2.1-38-3-46.5"/><path fill="none" stroke="#434446" stroke-miterlimit="10" d="M640.8 615.9h510.5"/><path fill="#73B3DD" d="M1212.7 142.3h20.4v34h-20.4zM618.8 142.3L545 157.7l73.8 18.6s5.3-1.1 4.9-1.9 2.9-15.1 2.9-15.1l-2.9-13.9-4.9-3.1zM1297.9 142.3h20.4v34h-20.4zM1253.8 142.3h24v34h-24zM1235.4 142.3h3.9v34h-3.9z"/><path fill="#73B3DD" d="M1233.1 142.3h2.2v34h-2.2zM1241.5 142.3h3.9v34h-3.9zM1239.3 142.3h2.2v34h-2.2zM1247.6 142.3h3.9v34h-3.9z"/><path fill="#73B3DD" d="M1245.4 142.3h2.2v34h-2.2zM1251.5 142.3h2.2v34h-2.2zM1279.5 142.3h3.9v34h-3.9zM1277.2 142.3h2.2v34h-2.2zM1285.6 142.3h3.9v34h-3.9z"/><path fill="#73B3DD" d="M1283.4 142.3h2.2v34h-2.2zM1291.7 142.3h3.9v34h-3.9zM1289.5 142.3h2.2v34h-2.2z"/><path fill="#73B3DD" d="M1295.6 142.3h2.2v34h-2.2zM1318.3 142.3h43v34h-43z"/><path fill="#73B3DD" d="M1373.8 170.8c0 3.1-6.3 5.6-14 5.6s-14-2.5-14-5.6v-22.9c0-3.1 6.3-5.6 14-5.6s14 2.5 14 5.6v22.9zM618.8 142.3h594v34h-594z"/><path fill="#73B3DD" d="M618.8 165.8h594v10.5h-594z"/><path fill="#73B3DD" d="M618.8 175.2h594v1.1h-594z"/><path fill="#73B3DD" d="M1212.7 175.2h105.5v1.1h-105.5zM1318.3 175.2h46v1.1h-46zM618.8 142.3h594v10.5h-594zM618.8 142.3s-10.3 6.2 0 10.5v-10.5zM618.8 165.8s-10.3 6.2 0 10.5v-10.5zM618.8 152.8s-13 5.8 0 13v-13zM566 153.3c.3.8 2 9 7.7 11.6 0 0-21.1-5.1-28.8-7.2l21.1-4.4z"/><path fill="#73B3DD" d="M572.7 164.4l-.9-.7c.3 0 43.6 10.6 43.6 10.6l2.8 1.8-44.4-11.2-1.1-.5z"/><path fill="#73B3DD" d="M618.8 175.2s-1.3-.2-2.9-.5l1.6 1.3 1.2.4M1364.2 175.2l5.2-.4s-2.3 1.3-5.2 1.5v-1.1z"/><path fill="#C0AE66" d="M1215.7 133h20.4v34h-20.4z"/><path fill="#CFA57B" d="M621.8 133L548 148.3l73.8 18.6s5.3-1.1 4.9-1.9 2.9-15.1 2.9-15.1l-2.9-13.9-4.9-3z"/><path fill="#C0AE66" d="M1300.9 133h20.4v34h-20.4zM1256.8 133h24v34h-24zM1238.4 133h3.9v34h-3.9z"/><path fill="#574108" d="M1236.1 133h2.2v34h-2.2z"/><path fill="#C0AE66" d="M1244.5 133h3.9v34h-3.9z"/><path fill="#574108" d="M1242.3 133h2.2v34h-2.2z"/><path fill="#C0AE66" d="M1250.6 133h3.9v34h-3.9z"/><path fill="#574108" d="M1248.4 133h2.2v34h-2.2zM1254.5 133h2.2v34h-2.2z"/><path fill="#C0AE66" d="M1282.5 133h3.9v34h-3.9z"/><path fill="#574108" d="M1280.2 133h2.2v34h-2.2z"/><path fill="#C0AE66" d="M1288.6 133h3.9v34h-3.9z"/><path fill="#574108" d="M1286.4 133h2.2v34h-2.2z"/><path fill="#C0AE66" d="M1294.7 133h3.9v34h-3.9z"/><path fill="#574108" d="M1292.5 133h2.2v34h-2.2zM1298.6 133h2.2v34h-2.2z"/><path fill="#A5443D" d="M1321.3 133h43v34h-43z"/><path fill="#A5443D" d="M1376.8 161.4c0 3.1-6.3 5.6-14 5.6s-14-2.5-14-5.6v-22.9c0-3.1 6.3-5.6 14-5.6s14 2.5 14 5.6v22.9z"/><path fill="#752E3A" d="M1321.3 133h1.5v34h-1.5z"/><path fill="#FDD875" d="M621.8 133h594v34h-594z"/><path fill="#E0C43D" d="M621.8 156.5h594V167h-594z"/><path fill="#A1956B" d="M621.8 165.8h594v1.1h-594z"/><path fill="#867F65" d="M1215.7 165.8h105.5v1.1h-105.5z"/><path fill="#752E3A" d="M1321.3 165.8h46v1.1h-46z"/><path fill="#E0C43D" d="M621.8 133h594v10.5h-594zM621.8 133s-10.3 6.2 0 10.5V133zM621.8 156.5s-10.3 6.2 0 10.5v-10.5z"/><path fill="#FDD875" d="M621.8 143.5s-13 5.8 0 13v-13z"/><path fill="#2F2F37" d="M569 144c.3.8 2 9 7.7 11.6 0 0-21.1-5.1-28.8-7.2L569 144z"/><path fill="#9E8166" d="M575.7 155.1l-.9-.7c.3 0 43.6 10.6 43.6 10.6l2.8 1.8-44.4-11.2-1.1-.5z"/><path fill="#A1956B" d="M621.8 165.8s-1.3-.2-2.9-.5l1.6 1.3 1.2.4"/><path fill="#752E3A" d="M1367.2 165.8l5.2-.4s-2.3 1.3-5.2 1.5v-1.1z"/></svg>