<?xml version="1.0" encoding="utf-8"?>
<!-- Generator: Adobe Illustrator 16.0.0, SVG Export Plug-In . SVG Version: 6.00 Build 0)  -->
<!DOCTYPE svg PUBLIC "-//W3C//DTD SVG 1.1//EN" "http://www.w3.org/Graphics/SVG/1.1/DTD/svg11.dtd">
<svg version="1.1" xmlns="http://www.w3.org/2000/svg" xmlns:xlink="http://www.w3.org/1999/xlink" x="0px" y="0px" width="296px"
	 height="60px" viewBox="0 0 296 60" enable-background="new 0 0 296 60" xml:space="preserve">
<g id="bg">
</g>
<g id="Layer_1">
	<g>
		<path fill="#FFFFFF" d="M23.56,36.206c1.768,0.905,4.483,1.811,7.285,1.811c3.017,0,4.612-1.25,4.612-3.146
			c0-1.811-1.379-2.846-4.871-4.096c-4.828-1.681-7.975-4.354-7.975-8.578c0-4.957,4.138-8.75,10.992-8.75
			c3.276,0,5.69,0.69,7.414,1.466l-1.466,5.302c-1.164-0.561-3.233-1.38-6.078-1.38c-2.845,0-4.225,1.293-4.225,2.802
			c0,1.854,1.638,2.673,5.388,4.096c5.13,1.896,7.543,4.569,7.543,8.664c0,4.871-3.75,9.009-11.725,9.009
			c-3.319,0-6.595-0.861-8.233-1.767L23.56,36.206z"/>
		<path fill="#FFFFFF" d="M51.748,34.524c0.215,2.716,2.888,4.01,5.949,4.01c2.241,0,4.052-0.302,5.819-0.862l0.862,4.439
			c-2.155,0.862-4.785,1.293-7.629,1.293c-7.156,0-11.251-4.138-11.251-10.733c0-5.345,3.319-11.25,10.647-11.25
			c6.811,0,9.397,5.302,9.397,10.518c0,1.121-0.129,2.112-0.215,2.586H51.748z M59.463,30.042c0-1.595-0.689-4.268-3.707-4.268
			c-2.759,0-3.879,2.5-4.052,4.268H59.463z"/>
		<path fill="#FFFFFF" d="M74.505,34.524c0.215,2.716,2.888,4.01,5.949,4.01c2.242,0,4.052-0.302,5.819-0.862l0.862,4.439
			c-2.155,0.862-4.785,1.293-7.629,1.293c-7.156,0-11.251-4.138-11.251-10.733c0-5.345,3.319-11.25,10.647-11.25
			c6.811,0,9.397,5.302,9.397,10.518c0,1.121-0.129,2.112-0.215,2.586H74.505z M82.221,30.042c0-1.595-0.689-4.268-3.707-4.268
			c-2.759,0-3.879,2.5-4.052,4.268H82.221z"/>
		<path fill="#FFFFFF" d="M92.952,42.974V26.723h-2.759v-4.828h2.759v-0.818c0-2.544,0.776-5.346,2.672-7.07
			c1.638-1.552,3.923-2.112,5.819-2.112c1.466,0,2.586,0.172,3.492,0.431l-0.259,5.043c-0.56-0.172-1.25-0.302-2.112-0.302
			c-2.155,0-3.061,1.682-3.061,3.751v1.077h4.224v4.828h-4.181v16.251H92.952z"/>
		<path fill="#FFFFFF" d="M118.899,42.974l-0.388-2.112h-0.129c-1.379,1.682-3.535,2.587-6.035,2.587
			c-4.268,0-6.811-3.104-6.811-6.467c0-5.474,4.914-8.104,12.372-8.061v-0.302c0-1.12-0.604-2.716-3.836-2.716
			c-2.155,0-4.44,0.733-5.819,1.596l-1.207-4.225c1.466-0.819,4.354-1.854,8.19-1.854c7.026,0,9.268,4.138,9.268,9.095v7.328
			c0,2.026,0.086,3.966,0.302,5.13H118.899z M118.123,33.017c-3.448-0.044-6.121,0.775-6.121,3.318c0,1.682,1.121,2.501,2.586,2.501
			c1.638,0,2.975-1.078,3.405-2.414c0.086-0.346,0.129-0.733,0.129-1.121V33.017z"/>
		<path fill="#FFFFFF" d="M136.225,30.774h0.086c0.475-0.862,0.992-1.724,1.509-2.543l4.268-6.337h7.889l-7.544,8.535l8.622,12.544
			h-8.061l-5.086-8.664l-1.681,2.068v6.596h-6.552V12.368h6.552V30.774z"/>
		<path fill="#FFFFFF" d="M153.68,14.308c2.285-0.345,5-0.604,7.975-0.604c5.389,0,9.225,1.25,11.769,3.621
			c2.586,2.371,4.095,5.733,4.095,10.432c0,4.742-1.466,8.621-4.182,11.294c-2.716,2.716-7.198,4.182-12.846,4.182
			c-2.672,0-4.914-0.13-6.811-0.345V14.308z M157.43,39.999c0.949,0.173,2.328,0.216,3.794,0.216
			c8.018,0,12.371-4.483,12.371-12.328c0.043-6.854-3.836-11.208-11.768-11.208c-1.94,0-3.405,0.173-4.397,0.388V39.999z"/>
		<path fill="#FFFFFF" d="M184.539,33.231c0.086,5.13,3.362,7.242,7.156,7.242c2.715,0,4.354-0.475,5.775-1.078l0.646,2.716
			c-1.336,0.604-3.62,1.293-6.939,1.293c-6.423,0-10.26-4.224-10.26-10.518c0-6.293,3.707-11.251,9.785-11.251
			c6.811,0,8.621,5.992,8.621,9.828c0,0.776-0.086,1.38-0.129,1.768H184.539z M195.66,30.516c0.044-2.414-0.991-6.164-5.259-6.164
			c-3.836,0-5.518,3.535-5.819,6.164H195.66z"/>
		<path fill="#FFFFFF" d="M203.504,39.094c1.12,0.733,3.104,1.509,5,1.509c2.759,0,4.052-1.379,4.052-3.104
			c0-1.811-1.077-2.802-3.88-3.836c-3.75-1.337-5.518-3.405-5.518-5.906c0-3.362,2.716-6.121,7.199-6.121
			c2.112,0,3.966,0.604,5.13,1.294l-0.948,2.759c-0.819-0.518-2.328-1.207-4.268-1.207c-2.242,0-3.492,1.293-3.492,2.845
			c0,1.725,1.25,2.5,3.966,3.534c3.621,1.38,5.475,3.19,5.475,6.294c0,3.664-2.845,6.25-7.802,6.25c-2.285,0-4.397-0.56-5.863-1.422
			L203.504,39.094z"/>
		<path fill="#FFFFFF" d="M225.313,16.248c0.043,1.293-0.905,2.327-2.414,2.327c-1.336,0-2.284-1.034-2.284-2.327
			c0-1.336,0.991-2.371,2.37-2.371C224.407,13.877,225.313,14.912,225.313,16.248z M221.088,42.974V22.11h3.794v20.863H221.088z"/>
		<path fill="#FFFFFF" d="M249.149,22.11c-0.086,1.509-0.173,3.189-0.173,5.733v12.112c0,4.785-0.948,7.716-2.974,9.526
			c-2.026,1.896-4.958,2.5-7.587,2.5c-2.5,0-5.259-0.604-6.94-1.724l0.948-2.889c1.38,0.862,3.535,1.639,6.121,1.639
			c3.88,0,6.725-2.026,6.725-7.285v-2.328h-0.086c-1.164,1.94-3.405,3.492-6.639,3.492c-5.173,0-8.88-4.397-8.88-10.173
			c0-7.07,4.612-11.079,9.397-11.079c3.621,0,5.604,1.897,6.509,3.621h0.087l0.172-3.146H249.149z M245.227,30.344
			c0-0.646-0.043-1.207-0.216-1.725c-0.689-2.198-2.543-4.009-5.302-4.009c-3.621,0-6.207,3.061-6.207,7.889
			c0,4.095,2.069,7.5,6.164,7.5c2.328,0,4.439-1.465,5.259-3.879c0.216-0.646,0.302-1.38,0.302-2.026V30.344z"/>
		<path fill="#FFFFFF" d="M255.008,27.757c0-2.155-0.043-3.922-0.172-5.646h3.362l0.215,3.448h0.087
			c1.034-1.982,3.448-3.923,6.896-3.923c2.889,0,7.371,1.725,7.371,8.88v12.458h-3.793V30.947c0-3.362-1.25-6.164-4.828-6.164
			c-2.5,0-4.439,1.767-5.087,3.879c-0.172,0.475-0.258,1.121-0.258,1.768v12.544h-3.794V27.757z"/>
	</g>
</g>
</svg>
